mtllib Texture.mtl
o Tsingtao label back
v 0.145260 0.060169 0.161061 
v 0.110887 0.111634 0.161061 
v 0.145260 0.060169 0.567521 
v 0.110887 0.111634 0.567521 
v 0.060339 0.145432 0.567521 
v 0.060339 0.145432 0.161061 
v -0.000319 0.157722 0.567521 
v -0.000319 0.157722 0.161061 
v -0.060977 0.145432 0.161061 
v -0.060977 0.145432 0.567521 
v -0.111526 0.111634 0.161061 
v -0.111526 0.111634 0.567521 
vn 0.835639 0.549274 0.002185 
vn 0.707105 0.707105 0.002185 
vn 0.835639 0.549274 0.002185 
vn 0.707105 0.707105 0.002185 
vn 0.382683 0.923877 0.002185 
vn 0.382683 0.923877 0.002185 
vn -0.000000 0.999998 0.002185 
vn -0.000000 0.999998 0.002185 
vn -0.382683 0.923877 0.002185 
vn -0.382683 0.923877 0.002185 
vn -0.549274 0.835639 0.002185 
vn -0.549274 0.835639 0.002185 
vt 0.000096 0.000096 
vt 0.200034 0.000096 
vt 0.000096 0.997613 
vt 0.200034 0.997613 
vt 0.399972 0.997613 
vt 0.399972 0.000096 
vt 0.600031 0.997613 
vt 0.600031 0.000096 
vt 0.799969 0.000096 
vt 0.799969 0.997613 
vt 0.999906 0.000096 
vt 0.999906 0.997613 
usemtl Tsingtao label back
s on 
f 1/1/1 2/2/2 3/3/3 
f 2/2/2 4/4/4 3/3/3 
f 3/3/3 4/4/4 4/4/4 
f 4/4/4 2/2/2 4/4/4 
f 4/4/4 2/2/2 5/5/5 
f 2/2/2 6/6/6 5/5/5 
f 5/5/5 6/6/6 7/7/7 
f 6/6/6 8/8/8 7/7/7 
f 7/7/7 8/8/8 9/9/9 
f 8/8/8 9/9/9 9/9/9 
f 9/9/9 9/9/9 7/7/7 
f 9/9/9 7/7/7 7/7/7 
f 7/7/7 7/7/7 7/7/7 
f 7/7/7 9/9/9 7/7/7 
f 7/7/7 9/9/9 10/10/10 
f 9/9/9 11/11/11 10/10/10 
f 10/10/10 11/11/11 12/12/12 

